<mxfile host="app.diagrams.net" modified="2023-07-10T09:22:09.650Z" agent="Mozilla/5.0 (Windows NT 10.0; Win64; x64) AppleWebKit/537.36 (KHTML, like Gecko) Chrome/114.0.0.0 Safari/537.36" etag="NFxMRwWhSAdFsv0FJUt9" version="21.6.1" type="github">
  <diagram name="‫עמוד-1‬" id="i2Fc2xm11VRdaYwxFgzn">
    <mxGraphModel dx="1194" dy="734" grid="1" gridSize="10" guides="1" tooltips="1" connect="1" arrows="1" fold="1" page="1" pageScale="1" pageWidth="827" pageHeight="1169" math="0" shadow="0">
      <root>
        <mxCell id="0" />
        <mxCell id="1" parent="0" />
        <mxCell id="r5iFqAWKlbIohHAniu_M-1" value="תחנה של אירה" style="whiteSpace=wrap;html=1;aspect=fixed;verticalAlign=top;fillColor=#dae8fc;strokeColor=#6c8ebf;" vertex="1" parent="1">
          <mxGeometry x="60" y="310" width="220" height="220" as="geometry" />
        </mxCell>
        <mxCell id="r5iFqAWKlbIohHAniu_M-9" style="edgeStyle=orthogonalEdgeStyle;rounded=0;orthogonalLoop=1;jettySize=auto;html=1;" edge="1" parent="1" source="r5iFqAWKlbIohHAniu_M-2" target="r5iFqAWKlbIohHAniu_M-8">
          <mxGeometry relative="1" as="geometry" />
        </mxCell>
        <mxCell id="r5iFqAWKlbIohHAniu_M-10" value="Export" style="edgeLabel;html=1;align=center;verticalAlign=middle;resizable=0;points=[];" vertex="1" connectable="0" parent="r5iFqAWKlbIohHAniu_M-9">
          <mxGeometry y="2" relative="1" as="geometry">
            <mxPoint as="offset" />
          </mxGeometry>
        </mxCell>
        <mxCell id="r5iFqAWKlbIohHAniu_M-2" value="DS Client" style="ellipse;whiteSpace=wrap;html=1;aspect=fixed;" vertex="1" parent="1">
          <mxGeometry x="115" y="340" width="60" height="60" as="geometry" />
        </mxCell>
        <mxCell id="r5iFqAWKlbIohHAniu_M-3" value="" style="whiteSpace=wrap;html=1;aspect=fixed;" vertex="1" parent="1">
          <mxGeometry x="290" y="300" width="240" height="240" as="geometry" />
        </mxCell>
        <mxCell id="r5iFqAWKlbIohHAniu_M-4" value="&lt;h1&gt;Dev Server&lt;/h1&gt;&lt;p&gt;&lt;br&gt;&lt;/p&gt;" style="text;html=1;strokeColor=none;fillColor=none;spacing=5;spacingTop=-20;whiteSpace=wrap;overflow=hidden;rounded=0;align=center;" vertex="1" parent="1">
          <mxGeometry x="315" y="260" width="190" height="35" as="geometry" />
        </mxCell>
        <mxCell id="r5iFqAWKlbIohHAniu_M-5" value="" style="endArrow=none;dashed=1;html=1;rounded=0;exitX=0;exitY=0.75;exitDx=0;exitDy=0;entryX=1;entryY=0.75;entryDx=0;entryDy=0;" edge="1" parent="1" source="r5iFqAWKlbIohHAniu_M-3" target="r5iFqAWKlbIohHAniu_M-3">
          <mxGeometry width="50" height="50" relative="1" as="geometry">
            <mxPoint x="390" y="400" as="sourcePoint" />
            <mxPoint x="440" y="350" as="targetPoint" />
          </mxGeometry>
        </mxCell>
        <mxCell id="r5iFqAWKlbIohHAniu_M-6" value="DSProdIra" style="rounded=1;whiteSpace=wrap;html=1;" vertex="1" parent="1">
          <mxGeometry x="310" y="490" width="70" height="40" as="geometry" />
        </mxCell>
        <mxCell id="r5iFqAWKlbIohHAniu_M-7" style="edgeStyle=orthogonalEdgeStyle;rounded=0;orthogonalLoop=1;jettySize=auto;html=1;entryX=0;entryY=0.75;entryDx=0;entryDy=0;" edge="1" parent="1" source="r5iFqAWKlbIohHAniu_M-2" target="r5iFqAWKlbIohHAniu_M-6">
          <mxGeometry relative="1" as="geometry" />
        </mxCell>
        <mxCell id="r5iFqAWKlbIohHAniu_M-12" style="edgeStyle=orthogonalEdgeStyle;rounded=0;orthogonalLoop=1;jettySize=auto;html=1;" edge="1" parent="1" source="r5iFqAWKlbIohHAniu_M-8" target="r5iFqAWKlbIohHAniu_M-11">
          <mxGeometry relative="1" as="geometry" />
        </mxCell>
        <mxCell id="r5iFqAWKlbIohHAniu_M-13" value="PUSH" style="edgeLabel;html=1;align=center;verticalAlign=middle;resizable=0;points=[];" vertex="1" connectable="0" parent="r5iFqAWKlbIohHAniu_M-12">
          <mxGeometry x="0.24" y="-1" relative="1" as="geometry">
            <mxPoint as="offset" />
          </mxGeometry>
        </mxCell>
        <mxCell id="r5iFqAWKlbIohHAniu_M-8" value="GIT" style="shape=cylinder3;whiteSpace=wrap;html=1;boundedLbl=1;backgroundOutline=1;size=15;" vertex="1" parent="1">
          <mxGeometry x="125" y="440" width="40" height="60" as="geometry" />
        </mxCell>
        <mxCell id="r5iFqAWKlbIohHAniu_M-14" style="edgeStyle=orthogonalEdgeStyle;rounded=0;orthogonalLoop=1;jettySize=auto;html=1;entryX=1;entryY=0.5;entryDx=0;entryDy=0;" edge="1" parent="1" source="r5iFqAWKlbIohHAniu_M-25" target="r5iFqAWKlbIohHAniu_M-15">
          <mxGeometry relative="1" as="geometry" />
        </mxCell>
        <mxCell id="r5iFqAWKlbIohHAniu_M-11" value="GIT" style="shape=cylinder3;whiteSpace=wrap;html=1;boundedLbl=1;backgroundOutline=1;size=15;" vertex="1" parent="1">
          <mxGeometry x="80" y="600" width="85" height="100" as="geometry" />
        </mxCell>
        <mxCell id="r5iFqAWKlbIohHAniu_M-15" value="DSProd" style="rounded=1;whiteSpace=wrap;html=1;" vertex="1" parent="1">
          <mxGeometry x="430" y="340" width="70" height="40" as="geometry" />
        </mxCell>
        <mxCell id="r5iFqAWKlbIohHAniu_M-16" value="תחנה של לילך" style="whiteSpace=wrap;html=1;aspect=fixed;verticalAlign=top;fillColor=#dae8fc;strokeColor=#6c8ebf;" vertex="1" parent="1">
          <mxGeometry x="70" y="720" width="220" height="220" as="geometry" />
        </mxCell>
        <mxCell id="r5iFqAWKlbIohHAniu_M-17" style="edgeStyle=orthogonalEdgeStyle;rounded=0;orthogonalLoop=1;jettySize=auto;html=1;" edge="1" parent="1" source="r5iFqAWKlbIohHAniu_M-19" target="r5iFqAWKlbIohHAniu_M-21">
          <mxGeometry relative="1" as="geometry" />
        </mxCell>
        <mxCell id="r5iFqAWKlbIohHAniu_M-18" value="Export" style="edgeLabel;html=1;align=center;verticalAlign=middle;resizable=0;points=[];" vertex="1" connectable="0" parent="r5iFqAWKlbIohHAniu_M-17">
          <mxGeometry y="2" relative="1" as="geometry">
            <mxPoint as="offset" />
          </mxGeometry>
        </mxCell>
        <mxCell id="r5iFqAWKlbIohHAniu_M-23" style="edgeStyle=orthogonalEdgeStyle;rounded=0;orthogonalLoop=1;jettySize=auto;html=1;entryX=0.25;entryY=1;entryDx=0;entryDy=0;" edge="1" parent="1" source="r5iFqAWKlbIohHAniu_M-19" target="r5iFqAWKlbIohHAniu_M-22">
          <mxGeometry relative="1" as="geometry" />
        </mxCell>
        <mxCell id="r5iFqAWKlbIohHAniu_M-19" value="DS Client" style="ellipse;whiteSpace=wrap;html=1;aspect=fixed;" vertex="1" parent="1">
          <mxGeometry x="125" y="750" width="60" height="60" as="geometry" />
        </mxCell>
        <mxCell id="r5iFqAWKlbIohHAniu_M-20" value="PUSH" style="edgeLabel;html=1;align=center;verticalAlign=middle;resizable=0;points=[];" vertex="1" connectable="0" parent="1">
          <mxGeometry x="131.5" y="963.5" as="geometry" />
        </mxCell>
        <mxCell id="r5iFqAWKlbIohHAniu_M-24" style="edgeStyle=orthogonalEdgeStyle;rounded=0;orthogonalLoop=1;jettySize=auto;html=1;" edge="1" parent="1" source="r5iFqAWKlbIohHAniu_M-21" target="r5iFqAWKlbIohHAniu_M-11">
          <mxGeometry relative="1" as="geometry">
            <Array as="points">
              <mxPoint x="10" y="880" />
              <mxPoint x="10" y="775" />
              <mxPoint x="20" y="775" />
              <mxPoint x="20" y="650" />
            </Array>
          </mxGeometry>
        </mxCell>
        <mxCell id="r5iFqAWKlbIohHAniu_M-21" value="GIT" style="shape=cylinder3;whiteSpace=wrap;html=1;boundedLbl=1;backgroundOutline=1;size=15;" vertex="1" parent="1">
          <mxGeometry x="135" y="850" width="40" height="60" as="geometry" />
        </mxCell>
        <mxCell id="r5iFqAWKlbIohHAniu_M-22" value="DSProdLilach" style="rounded=1;whiteSpace=wrap;html=1;" vertex="1" parent="1">
          <mxGeometry x="400" y="490" width="80" height="40" as="geometry" />
        </mxCell>
        <mxCell id="r5iFqAWKlbIohHAniu_M-26" value="" style="edgeStyle=orthogonalEdgeStyle;rounded=0;orthogonalLoop=1;jettySize=auto;html=1;entryX=1;entryY=0.5;entryDx=0;entryDy=0;" edge="1" parent="1" source="r5iFqAWKlbIohHAniu_M-11" target="r5iFqAWKlbIohHAniu_M-25">
          <mxGeometry relative="1" as="geometry">
            <mxPoint x="165" y="650" as="sourcePoint" />
            <mxPoint x="500" y="360" as="targetPoint" />
          </mxGeometry>
        </mxCell>
        <mxCell id="r5iFqAWKlbIohHAniu_M-25" value="Azure Pipline" style="shape=cylinder3;whiteSpace=wrap;html=1;boundedLbl=1;backgroundOutline=1;size=15;" vertex="1" parent="1">
          <mxGeometry x="255" y="610" width="60" height="80" as="geometry" />
        </mxCell>
      </root>
    </mxGraphModel>
  </diagram>
</mxfile>
